<svg xmlns="http://www.w3.org/2000/svg" xmlns:xlink="http://www.w3.org/1999/xlink" version="1.1" width="256" height="256" viewBox="0 0 256 256" xml:space="preserve">
<g style="stroke: none; stroke-width: 0; stroke-dasharray: none; stroke-linecap: butt; stroke-linejoin: miter; stroke-miterlimit: 10; fill: none; fill-rule: nonzero; opacity: 1;" transform="translate(1.4065934065934016 1.4065934065934016) scale(2.81 2.81)">
	<path d="M 82.461 77.016 H 7.539 C 3.375 77.016 0 73.641 0 69.478 V 20.522 c 0 -4.164 3.375 -7.539 7.539 -7.539 h 74.923 c 4.164 0 7.539 3.375 7.539 7.539 v 48.955 C 90 73.641 86.625 77.016 82.461 77.016 z" style="stroke: none; stroke-width: 1; stroke-dasharray: none; stroke-linecap: butt; stroke-linejoin: miter; stroke-miterlimit: 10; fill: rgb(107, 107, 198); fill-rule: nonzero; opacity: 1;" transform=" matrix(1 0 0 1 0 0) " stroke-linecap="round"/>
	<path d="M 62.795 42.008 c 6.953 -8.235 15.543 -18.415 20.455 -24.221 L 63.387 35.123 c -1.801 1.572 -10.809 9.435 -12.415 10.836 c -0.562 0.496 -1.623 1.409 -2.173 1.896 c -1.096 0.876 -2.522 1.247 -3.799 1.062 c -1.4 0.211 -3.012 -0.284 -4.11 -1.333 l -0.621 -0.542 C 31.806 39.648 15.387 25.334 6.75 17.786 c 5.213 6.172 13.368 15.828 20.456 24.22 L 6.75 72.214 l 25.325 -24.442 c 1.526 1.807 2.946 3.489 4.18 4.949 c 2.159 2.463 5.358 4.031 8.745 4.197 c 3.529 -0.174 6.844 -1.859 9.01 -4.511 c 0.341 -0.392 1.243 -1.487 1.595 -1.888 c 0.695 -0.821 1.484 -1.755 2.32 -2.745 L 83.25 72.214 L 62.795 42.008 z" style="stroke: none; stroke-width: 1; stroke-dasharray: none; stroke-linecap: butt; stroke-linejoin: miter; stroke-miterlimit: 10; fill: rgb(255,255,255); fill-rule: nonzero; opacity: 1;" transform=" matrix(1 0 0 1 0 0) " stroke-linecap="round"/>
</g>
</svg>